<svg width="53" height="62" viewBox="0 0 53 62" fill="none" xmlns="http://www.w3.org/2000/svg">
<path d="M5.6648 58.244C6.31894 59.7473 8.37368 59.7473 9.02782 58.244C12.6719 49.8698 14.6926 40.6262 14.6926 30.9106C14.6926 21.1951 12.6719 11.9515 9.02782 3.57719C8.37368 2.07395 6.31893 2.07395 5.66479 3.57719C2.02072 11.9515 0 21.1951 0 30.9106C0 40.6262 2.02072 49.8698 5.6648 58.244Z" fill="#5251F5"/>
<path d="M22.0268 52.3861C22.658 53.8991 24.7039 53.8991 25.3351 52.3861C28.0188 45.9531 29.5008 38.8935 29.5008 31.4878C29.5008 24.0821 28.0188 17.0225 25.3351 10.5895C24.7039 9.07651 22.658 9.07652 22.0268 10.5895C19.3431 17.0225 17.8611 24.0821 17.8611 31.4878C17.8611 38.8935 19.3431 45.9531 22.0268 52.3861Z" fill="#5251F5"/>
<path d="M35.896 46.5764C36.4994 48.1008 38.5346 48.1008 39.138 46.5764C41.0966 41.6284 42.1729 36.235 42.1729 30.5902C42.1729 24.9454 41.0966 19.552 39.138 14.604C38.5346 13.0797 36.4994 13.0797 35.896 14.604C33.9374 19.552 32.8611 24.9454 32.8611 30.5902C32.8611 36.235 33.9374 41.6284 35.896 46.5764Z" fill="#5251F5"/>
<path d="M47.3651 42.2356C47.9255 43.7762 49.9446 43.7762 50.505 42.2356C51.7959 38.6868 52.5 34.8562 52.5 30.8611C52.5 26.8661 51.7959 23.0355 50.505 19.4867C49.9446 17.9461 47.9255 17.9461 47.3651 19.4867C46.0742 23.0355 45.3701 26.8661 45.3701 30.8611C45.3701 34.8562 46.0742 38.6868 47.3651 42.2356Z" fill="#5251F5"/>
</svg>
